<?xml version="1.0" encoding="UTF-8"?>
<!DOCTYPE svg PUBLIC "-//W3C//DTD SVG 1.1//EN" "http://www.w3.org/Graphics/SVG/1.1/DTD/svg11.dtd">
<!-- Creator: CorelDRAW 2026 -->
<svg xmlns="http://www.w3.org/2000/svg" xml:space="preserve" width="12.3831mm" height="12.3771mm" version="1.1" style="shape-rendering:geometricPrecision; text-rendering:geometricPrecision; image-rendering:optimizeQuality; fill-rule:evenodd; clip-rule:evenodd"
viewBox="0 0 78.33 78.29"
 xmlns:xlink="http://www.w3.org/1999/xlink"
 xmlns:xodm="http://www.corel.com/coreldraw/odm/2003">
 <defs>
  <style type="text/css">
   <![CDATA[
    .fil1 {fill:#00A859}
    .fil0 {fill:#201E1E}
   ]]>
  </style>
 </defs>
 <g id="Capa_x0020_1">
  <metadata id="CorelCorpID_0Corel-Layer"/>
  <g id="_1364004086256">
   <path class="fil0" d="M54.11 17.4c0.04,-5.35 0.24,-5.95 -0.13,-5.98 -0.18,-0.01 -1.39,0.77 -2.16,1.22 -4.92,2.83 -5.27,3.06 -5.35,3.38 -0.03,0.12 -0.01,12.1 -0.01,12.15 0,0.4 0.19,0.51 0.93,1.02 1.63,1.11 2.15,1.37 2.2,1.76 0.04,0.28 0.01,15.95 0.01,15.97 -0,0.39 -0.07,0.6 -1.28,0.74 -0.25,0.03 -1.9,0.23 -3.04,0.62 -2.32,0.8 -3.11,1.31 -4.09,1.91 -1.27,0.76 -1.89,1.43 -2.05,1.15 -0.02,-0.04 -0.02,-0.05 -0.03,-4.25 -0.03,-16.56 0.02,-18.51 -0,-19.02 -0.02,-0.5 -0.28,-0.33 -0.62,-0.13 -6.08,3.67 -6.08,3.67 -6.6,4 -0.87,0.56 -0.8,0.67 -0.8,1.16 -0,0.99 -0,10.82 0.01,12.33 0,0.58 0.11,0.62 2.03,1.75 0.6,0.35 0.73,0.42 0.69,2.59 -0.1,5.55 0.1,6.02 -0.07,6.09 -0.15,0.07 -0.29,-0.06 -0.56,-0.33 -0.1,-0.11 -0.71,-0.72 -1.39,-1.21 -1.27,-0.91 -3.01,-2.12 -5.28,-2.62 -2,-0.43 -2.05,-0.21 -2.69,-0.46 -0.3,-0.12 -0.25,-1.15 -0.24,-3.38 0.02,-3.05 0.04,-3.35 -0.28,-3.2 -0.64,0.31 -4.42,2.76 -4.8,3 -0.3,0.19 -3.26,2.11 -3.74,2.42 -1.38,0.88 -3.07,-1.27 -2.59,-2.06 0.07,-0.12 0.08,-0.13 1.5,-0.92 0.3,-0.17 5.84,-3.34 6.82,-3.89 0.77,-0.43 0.75,-0.45 1.52,-0.88 1.28,-0.72 1.27,-0.73 1.38,-0.79 0.21,-0.11 0.34,-0.43 2.08,0.72 2.11,1.4 2.08,1.44 2.26,1.56 0.79,0.52 0.85,0.49 0.93,0.46 0.13,-0.06 0.13,-0.12 0.12,-9.72 -0,-3.61 -0.02,-3.63 0.13,-3.91 0.04,-0.08 0.12,-0.22 0.9,-0.65 2.51,-1.4 6.5,-3.81 8.03,-4.68 1.11,-0.63 1.18,-0.75 1.77,-0.42 0.97,0.54 0.97,0.55 1.05,0.6 1.16,0.64 2.88,1.78 3.12,1.91 0.6,0.3 0.34,-0.36 0.34,-10.73 0,-2.04 -0.08,-2.2 0.44,-2.57 0.11,-0.08 9,-5.61 9.45,-5.83 0.28,-0.13 0.31,-0.06 1.44,0.62 0.18,0.11 8.76,5.65 8.91,5.85 0.1,0.13 0.11,0.15 0.11,20.42 0,11.72 0.19,11.73 0.01,12.59 -0.1,0.49 -0.29,0.34 -0.77,0.21 -2.23,-0.61 -2.23,-0.58 -2.69,-0.68 -2.74,-0.62 -4.81,-0.47 -5.2,-0.46 -2.06,0.07 -2.33,0.19 -2.3,-0.28 0.09,-1.45 0.06,-1.45 0.19,-9.03 0.32,-18.54 0.29,-18.53 0.33,-20.15z"/>
   <path class="fil1" d="M0.1 42.67c-0.04,-0.63 -0.1,-0.97 -0.1,-2.61 -0,-0.97 -0.02,-6.14 1.87,-11.99 2.43,-7.51 6.93,-14.03 11.97,-18.52 1.62,-1.45 1.65,-1.41 2.12,-1.79 0.92,-0.75 0.94,-0.72 2.09,-1.55 1.77,-1.28 5.26,-3.12 6.86,-3.72 2.65,-1 7.27,-2.94 16.14,-2.39 3.92,0.24 6.24,0.9 6.87,1.03 1.14,0.24 2.41,0.67 2.86,0.8 0.8,0.22 3.24,1.11 3.3,1.14 1.11,0.44 1.24,0.41 1.18,0.61 -0.09,0.3 -2.35,0.48 -6.5,2.32 -2.71,1.21 -4.09,2.15 -4.43,2.35 -1.72,0.99 -4.63,3.29 -6.34,4.97 -2.57,2.52 -2.48,2.6 -5.2,4.96 -2.01,1.74 -5.07,3.52 -6.84,4.21 -2.01,0.79 -2,0.8 -4.09,1.36 -4.36,1.16 -9,1.01 -9.38,1.01 -2.74,0.01 -2.84,0.01 -2.89,-0.22 -0.06,-0.3 0.42,-1.94 0.53,-2.27 1.13,-3.21 1.85,-5.05 4.02,-8.23 0.67,-0.99 0.71,-0.96 0.98,-1.35 1.41,-1.99 3.94,-4.3 3.95,-4.4 0.01,-0.2 -0.29,0.03 -0.32,0.04 -1.32,0.98 -3.54,3.24 -3.84,3.53 -9.31,9.44 -10.33,20.85 -10.52,23.26 -0.2,2.48 -0.02,5.53 0.06,6.17 0.47,3.96 1.01,5.92 1.91,8.51 0.83,2.38 1.23,3.02 1.55,3.74 1.61,3.62 4.52,7.29 5.59,8.41 1.6,1.68 3.7,4.07 8.75,7.07 8.38,4.99 15.91,5.22 18.26,5.28 5.63,0.15 10.67,-1.27 12.41,-1.87 0.58,-0.2 0.57,-0.2 1.14,-0.4 4.08,-1.41 8.36,-4.1 10.17,-5.55 1.64,-1.31 3.69,-2.85 6.6,-6.43 0.07,-0.09 0.65,-0.8 0.91,-1.16 0.93,-1.31 4.11,-5.59 5.95,-12.65 0.19,-0.72 0.14,-0.92 0.22,-1.23 0.01,-0.05 0.23,-0.58 0.23,-0.58 0.01,-0.02 0.23,-0.17 0.17,0.24 -0.27,1.74 -0.64,3.02 -1.17,4.59 -0.14,0.41 -0.98,2.91 -1.99,5.04 -1.23,2.6 -1.27,2.58 -2.4,4.54 -4.95,8.58 -13.13,13.36 -13.94,13.85 -4.93,2.99 -11.35,5.23 -18.04,5.49 -4.74,0.18 -7.44,-0.37 -9.3,-0.73 -0.42,-0.08 -2.87,-0.55 -5.21,-1.42 -2.83,-1.04 -3.94,-1.61 -5.48,-2.42 -11.2,-5.89 -19.71,-17.8 -20.69,-31.02z"/>
   <path class="fil1" d="M64.92 51.14c-0.21,0.03 -4.6,0.34 -9.61,3.55 -2.62,1.68 -4.82,3.75 -8.34,6.67 -4.82,3.99 -7.8,4.99 -8.69,5.39 -1.79,0.78 -3.97,1.23 -4.04,-0.02 -0.12,-2.05 2.39,-4.81 3.06,-5.57 0.32,-0.36 2.48,-2.7 3.42,-3.62 3.53,-3.42 5.19,-3.36 4.98,-3.73 -0.12,-0.21 -1.24,0.35 -1.79,0.58 -0.38,0.16 -3.89,1.87 -5.37,3.23 -1.49,1.37 -3.56,4.02 -3.75,2.86 -0.07,-0.41 0.4,-2.37 1.54,-4.02 0.24,-0.35 0.5,-0.81 1.47,-1.84 3.12,-3.32 9.76,-6.62 18.1,-6.7 0.68,-0.01 2.07,-0.09 5.39,0.56 0.18,0.03 1.79,0.45 2.15,0.58 1.55,0.54 1.53,0.57 3.04,1.21 0.09,0.04 1.05,0.45 1.12,0.51 0.36,0.3 -0.92,0.18 -2.68,0.37z"/>
   <path class="fil1" d="M18.9 52.17c2.22,-0.01 4.46,0 6.87,0.54 6.96,1.56 8.34,6.14 8.01,7.5 -0.52,2.12 -2.8,-0.03 -4.63,-1.56 -0.92,-0.77 -2.57,-1.58 -2.85,-1.61 -0.08,-0.01 -0.5,0.1 0,0.36 1.13,0.6 3.3,2.19 4.88,4.43 0.19,0.26 1.58,2.25 0.93,3.92 -0.46,1.18 -0.99,0.57 -2.16,-0.53 -1.76,-1.67 -2.93,-2.19 -3.68,-2.56 -5.81,-2.83 -8.98,-2.65 -11.11,-4.09 -1.52,-1.03 -2.93,-1.93 -4.2,-4.21 -0.28,-0.5 -1.24,-2.83 -0.77,-5.37 0.17,-0.88 0.52,-0.09 1.04,0.55 2.3,2.87 3.85,2.63 7.67,2.62z"/>
  </g>
 </g>
</svg>
